<svg xmlns="http://www.w3.org/2000/svg" xmlns:xlink="http://www.w3.org/1999/xlink" width="500" zoomAndPan="magnify" viewBox="0 0 375 374.999991" height="500" preserveAspectRatio="xMidYMid meet" version="1.0"><defs><g/><clipPath id="80242917df"><path d="M 83 161 L 258 161 L 258 282 L 83 282 Z M 83 161 " clip-rule="nonzero"/></clipPath><clipPath id="a4e74befad"><path d="M 92.058594 161.347656 L 263.957031 175.746094 L 255.132812 281.125 L 83.234375 266.730469 Z M 92.058594 161.347656 " clip-rule="nonzero"/></clipPath><clipPath id="749b48edb3"><path d="M 57.476562 158.453125 L 263.757812 175.730469 L 254.304688 288.582031 L 48.027344 271.308594 Z M 57.476562 158.453125 " clip-rule="nonzero"/></clipPath><clipPath id="898fafc79b"><path d="M 57.476562 158.453125 L 263.757812 175.730469 L 254.304688 288.582031 L 48.027344 271.308594 Z M 57.476562 158.453125 " clip-rule="nonzero"/></clipPath></defs><g fill="#0c7643" fill-opacity="1"><g transform="translate(84.694906, 216.1578)"><g><path d="M 9.671875 0 L 9.671875 -82.75 L 38.234375 -82.75 L 38.234375 -74.03125 L 38.546875 -74.03125 C 45.960938 -81.457031 53.867188 -85.171875 62.265625 -85.171875 C 68.285156 -85.171875 73.925781 -83.929688 79.1875 -81.453125 C 84.457031 -78.984375 88.4375 -75.164062 91.125 -70 C 99.519531 -80.113281 108.660156 -85.171875 118.546875 -85.171875 C 127.367188 -85.171875 134.953125 -82.695312 141.296875 -77.75 C 147.640625 -72.800781 150.8125 -65.054688 150.8125 -54.515625 L 150.8125 0 L 122.265625 0 L 122.265625 -46.78125 C 122.265625 -51.1875 121.050781 -54.867188 118.625 -57.828125 C 116.207031 -60.785156 112.582031 -62.265625 107.75 -62.265625 C 103.550781 -62.265625 100.347656 -61 98.140625 -58.46875 C 95.941406 -55.9375 94.734375 -52.898438 94.515625 -49.359375 L 94.515625 0 L 65.96875 0 L 65.96875 -46.78125 C 65.96875 -51.1875 64.757812 -54.867188 62.34375 -57.828125 C 59.925781 -60.785156 56.296875 -62.265625 51.453125 -62.265625 C 47.046875 -62.265625 43.738281 -60.890625 41.53125 -58.140625 C 39.332031 -55.398438 38.234375 -52.148438 38.234375 -48.390625 L 38.234375 0 Z M 9.671875 0 "/></g></g></g><g fill="#0c7643" fill-opacity="1"><g transform="translate(235.507064, 216.1578)"><g><path d="M 28.0625 -34.515625 C 33.226562 -34.515625 37.609375 -32.710938 41.203125 -29.109375 C 44.804688 -25.503906 46.609375 -21.125 46.609375 -15.96875 C 46.609375 -10.914062 44.804688 -6.585938 41.203125 -2.984375 C 37.609375 0.617188 33.226562 2.421875 28.0625 2.421875 C 23.007812 2.421875 18.679688 0.617188 15.078125 -2.984375 C 11.472656 -6.585938 9.671875 -10.914062 9.671875 -15.96875 C 9.671875 -21.125 11.472656 -25.503906 15.078125 -29.109375 C 18.679688 -32.710938 23.007812 -34.515625 28.0625 -34.515625 Z M 28.0625 -34.515625 "/></g></g></g><g clip-path="url(#80242917df)"><g clip-path="url(#a4e74befad)"><g clip-path="url(#749b48edb3)"><g clip-path="url(#898fafc79b)"><path fill="#ffffff" d="M 85.394531 160.792969 C 94.824219 161.640625 95.136719 172.75 109.167969 177.65625 C 118.914062 181.066406 146.453125 171.003906 167.335938 182.507812 C 179.621094 189.277344 179.585938 200.617188 189.0625 208.570312 C 203.496094 220.683594 229.171875 211.210938 245.878906 221.828125 C 261.320312 231.636719 261.527344 253.800781 248.382812 267.082031 C 227.703125 287.972656 178.320312 282.480469 162.132812 280.679688 C 151.132812 279.457031 89.867188 272.640625 63.917969 236.757812 C 44.695312 210.171875 56.292969 183.449219 67.558594 170.773438 C 70.292969 167.691406 77.261719 160.058594 85.394531 160.792969 Z M 85.394531 160.792969 " fill-opacity="1" fill-rule="nonzero"/></g></g></g></g><g fill="#0c7643" fill-opacity="1"><g transform="translate(191.223342, 226.973495)"><g><path d="M 7.15625 -6.703125 L 8.203125 -5.921875 L 6 -2.984375 L 7.203125 -2.078125 L 6.4375 -1.0625 L 5.234375 -1.96875 L 2.390625 1.796875 L 1.34375 1.015625 L 4.1875 -2.75 L 3.140625 -3.546875 L 3.90625 -4.5625 L 4.953125 -3.765625 Z M 7.15625 -6.703125 "/></g></g></g><g fill="#0c7643" fill-opacity="1"><g transform="translate(195.997748, 230.579945)"><g><path d="M 1.796875 -2.390625 C 1.972656 -2.765625 2.21875 -3.078125 2.53125 -3.328125 C 2.84375 -3.585938 3.1875 -3.78125 3.5625 -3.90625 C 3.9375 -4.039062 4.328125 -4.097656 4.734375 -4.078125 C 5.148438 -4.054688 5.554688 -3.945312 5.953125 -3.75 C 6.335938 -3.5625 6.664062 -3.304688 6.9375 -2.984375 C 7.207031 -2.671875 7.410156 -2.328125 7.546875 -1.953125 C 7.679688 -1.585938 7.734375 -1.203125 7.703125 -0.796875 C 7.679688 -0.398438 7.582031 -0.015625 7.40625 0.359375 C 7.21875 0.742188 6.96875 1.066406 6.65625 1.328125 C 6.351562 1.585938 6.015625 1.78125 5.640625 1.90625 C 5.265625 2.039062 4.867188 2.09375 4.453125 2.0625 C 4.035156 2.039062 3.632812 1.9375 3.25 1.75 C 2.851562 1.550781 2.519531 1.296875 2.25 0.984375 C 1.988281 0.671875 1.789062 0.332031 1.65625 -0.03125 C 1.519531 -0.40625 1.460938 -0.796875 1.484375 -1.203125 C 1.503906 -1.609375 1.609375 -2.003906 1.796875 -2.390625 Z M 2.953125 -1.8125 C 2.847656 -1.582031 2.785156 -1.347656 2.765625 -1.109375 C 2.753906 -0.878906 2.785156 -0.65625 2.859375 -0.4375 C 2.941406 -0.21875 3.0625 -0.0195312 3.21875 0.15625 C 3.375 0.332031 3.5625 0.476562 3.78125 0.59375 C 4 0.695312 4.222656 0.753906 4.453125 0.765625 C 4.691406 0.785156 4.921875 0.757812 5.140625 0.6875 C 5.359375 0.613281 5.554688 0.5 5.734375 0.34375 C 5.921875 0.195312 6.066406 0.0078125 6.171875 -0.21875 C 6.285156 -0.4375 6.347656 -0.660156 6.359375 -0.890625 C 6.367188 -1.128906 6.332031 -1.359375 6.25 -1.578125 C 6.175781 -1.804688 6.0625 -2.007812 5.90625 -2.1875 C 5.757812 -2.375 5.578125 -2.519531 5.359375 -2.625 C 5.140625 -2.738281 4.910156 -2.800781 4.671875 -2.8125 C 4.429688 -2.820312 4.203125 -2.785156 3.984375 -2.703125 C 3.765625 -2.628906 3.566406 -2.515625 3.390625 -2.359375 C 3.210938 -2.210938 3.066406 -2.03125 2.953125 -1.8125 Z M 2.953125 -1.8125 "/></g></g></g><g fill="#0c7643" fill-opacity="1"><g transform="translate(203.985243, 234.336438)"><g><path d="M 2.546875 -5.421875 L 3.65625 -5.171875 L 3.625 -5.03125 C 3.59375 -4.769531 3.5625 -4.535156 3.53125 -4.328125 C 3.5 -4.128906 3.46875 -3.910156 3.4375 -3.671875 C 3.738281 -4.117188 4.144531 -4.429688 4.65625 -4.609375 C 5.175781 -4.796875 5.710938 -4.828125 6.265625 -4.703125 C 6.859375 -4.566406 7.289062 -4.300781 7.5625 -3.90625 C 7.84375 -3.519531 7.9375 -3.066406 7.84375 -2.546875 L 6.90625 1.578125 L 5.640625 1.28125 L 6.453125 -2.28125 C 6.492188 -2.539062 6.445312 -2.789062 6.3125 -3.03125 C 6.175781 -3.28125 5.921875 -3.453125 5.546875 -3.546875 C 5.273438 -3.609375 5.007812 -3.617188 4.75 -3.578125 C 4.5 -3.546875 4.265625 -3.46875 4.046875 -3.34375 C 3.828125 -3.226562 3.632812 -3.070312 3.46875 -2.875 C 3.3125 -2.6875 3.203125 -2.457031 3.140625 -2.1875 L 2.515625 0.578125 L 1.25 0.28125 Z M 2.546875 -5.421875 "/></g></g></g><g fill="#0c7643" fill-opacity="1"><g transform="translate(212.955685, 236.224186)"><g><path d="M 2.03125 -2.96875 C 2.039062 -2.457031 2.21875 -2.03125 2.5625 -1.6875 C 2.90625 -1.34375 3.347656 -1.175781 3.890625 -1.1875 C 4.421875 -1.195312 4.851562 -1.378906 5.1875 -1.734375 C 5.519531 -2.085938 5.679688 -2.519531 5.671875 -3.03125 C 5.660156 -3.550781 5.484375 -3.972656 5.140625 -4.296875 C 4.796875 -4.628906 4.359375 -4.789062 3.828125 -4.78125 C 3.285156 -4.769531 2.847656 -4.59375 2.515625 -4.25 C 2.179688 -3.914062 2.019531 -3.488281 2.03125 -2.96875 Z M 5.84375 -5.953125 L 6.921875 -5.96875 L 7.015625 0.125 L 7.03125 0.8125 C 7.039062 1.226562 6.96875 1.617188 6.8125 1.984375 C 6.65625 2.347656 6.4375 2.664062 6.15625 2.9375 C 5.882812 3.207031 5.5625 3.421875 5.1875 3.578125 C 4.8125 3.742188 4.40625 3.832031 3.96875 3.84375 C 3.507812 3.84375 3.0625 3.742188 2.625 3.546875 C 2.1875 3.359375 1.804688 3.15625 1.484375 2.9375 C 1.628906 2.757812 1.769531 2.582031 1.90625 2.40625 C 2.039062 2.226562 2.179688 2.046875 2.328125 1.859375 C 2.535156 2.015625 2.78125 2.160156 3.0625 2.296875 C 3.34375 2.429688 3.632812 2.5 3.9375 2.5 C 4.195312 2.488281 4.4375 2.4375 4.65625 2.34375 C 4.882812 2.25 5.078125 2.117188 5.234375 1.953125 C 5.398438 1.785156 5.523438 1.585938 5.609375 1.359375 C 5.691406 1.140625 5.734375 0.898438 5.734375 0.640625 L 5.71875 -0.40625 C 5.738281 -0.457031 5.757812 -0.503906 5.78125 -0.546875 C 5.800781 -0.597656 5.820312 -0.648438 5.84375 -0.703125 C 5.8125 -0.660156 5.742188 -0.597656 5.640625 -0.515625 C 5.546875 -0.429688 5.414062 -0.347656 5.25 -0.265625 C 5.082031 -0.191406 4.882812 -0.117188 4.65625 -0.046875 C 4.425781 0.015625 4.175781 0.0507812 3.90625 0.0625 C 3.46875 0.0625 3.054688 -0.0078125 2.671875 -0.15625 C 2.285156 -0.3125 1.945312 -0.523438 1.65625 -0.796875 C 1.375 -1.066406 1.144531 -1.382812 0.96875 -1.75 C 0.800781 -2.125 0.71875 -2.519531 0.71875 -2.9375 C 0.707031 -3.34375 0.78125 -3.726562 0.9375 -4.09375 C 1.09375 -4.46875 1.304688 -4.796875 1.578125 -5.078125 C 1.859375 -5.367188 2.1875 -5.601562 2.5625 -5.78125 C 2.945312 -5.957031 3.359375 -6.046875 3.796875 -6.046875 C 4.066406 -6.054688 4.320312 -6.019531 4.5625 -5.9375 C 4.8125 -5.863281 5.023438 -5.773438 5.203125 -5.671875 C 5.378906 -5.578125 5.519531 -5.484375 5.625 -5.390625 C 5.726562 -5.296875 5.78125 -5.234375 5.78125 -5.203125 C 5.78125 -5.316406 5.789062 -5.4375 5.8125 -5.5625 C 5.832031 -5.695312 5.84375 -5.828125 5.84375 -5.953125 Z M 5.84375 -5.953125 "/></g></g></g><g fill="#0c7643" fill-opacity="1"><g transform="translate(222.43685, 235.836977)"><g><path d="M 2.421875 -5.484375 C 2.015625 -5.378906 1.6875 -5.1875 1.4375 -4.90625 C 1.195312 -4.632812 1.054688 -4.328125 1.015625 -3.984375 C 1.003906 -3.816406 1.015625 -3.628906 1.046875 -3.421875 C 1.472656 -3.710938 1.894531 -4.003906 2.3125 -4.296875 C 2.738281 -4.597656 3.171875 -4.890625 3.609375 -5.171875 C 3.421875 -5.304688 3.222656 -5.40625 3.015625 -5.46875 C 2.816406 -5.53125 2.617188 -5.535156 2.421875 -5.484375 Z M 5.375 -4.875 C 4.75 -4.457031 4.132812 -4.035156 3.53125 -3.609375 C 2.925781 -3.191406 2.3125 -2.765625 1.6875 -2.328125 C 1.882812 -2.148438 2.125 -2.03125 2.40625 -1.96875 C 2.6875 -1.914062 2.984375 -1.925781 3.296875 -2 C 3.742188 -2.113281 4.078125 -2.375 4.296875 -2.78125 L 5.3125 -2.0625 C 5.125 -1.738281 4.882812 -1.460938 4.59375 -1.234375 C 4.3125 -1.015625 3.984375 -0.859375 3.609375 -0.765625 C 3.179688 -0.660156 2.765625 -0.640625 2.359375 -0.703125 C 1.953125 -0.765625 1.578125 -0.898438 1.234375 -1.109375 C 0.890625 -1.316406 0.59375 -1.578125 0.34375 -1.890625 C 0.101562 -2.203125 -0.0664062 -2.566406 -0.171875 -2.984375 C -0.273438 -3.390625 -0.296875 -3.789062 -0.234375 -4.1875 C -0.171875 -4.59375 -0.0390625 -4.960938 0.15625 -5.296875 C 0.363281 -5.628906 0.632812 -5.921875 0.96875 -6.171875 C 1.300781 -6.421875 1.679688 -6.597656 2.109375 -6.703125 C 2.410156 -6.785156 2.71875 -6.800781 3.03125 -6.75 C 3.351562 -6.695312 3.65625 -6.585938 3.9375 -6.421875 C 4.226562 -6.253906 4.5 -6.035156 4.75 -5.765625 C 5 -5.503906 5.207031 -5.207031 5.375 -4.875 Z M 5.375 -4.875 "/></g></g></g><g fill="#0c7643" fill-opacity="1"><g transform="translate(141.098171, 195.049873)"><g><path d="M 2.75 -5.3125 L 3.859375 -5.015625 L 3.8125 -4.890625 C 3.769531 -4.628906 3.726562 -4.398438 3.6875 -4.203125 C 3.65625 -4.015625 3.613281 -3.796875 3.5625 -3.546875 C 3.90625 -3.972656 4.320312 -4.265625 4.8125 -4.421875 C 5.3125 -4.585938 5.851562 -4.601562 6.4375 -4.46875 C 6.988281 -4.320312 7.394531 -4.066406 7.65625 -3.703125 C 7.925781 -3.335938 8.03125 -2.914062 7.96875 -2.4375 C 8.3125 -2.851562 8.726562 -3.132812 9.21875 -3.28125 C 9.707031 -3.425781 10.234375 -3.4375 10.796875 -3.3125 C 11.390625 -3.144531 11.816406 -2.859375 12.078125 -2.453125 C 12.335938 -2.054688 12.410156 -1.601562 12.296875 -1.09375 L 11.203125 3 L 9.953125 2.65625 L 10.890625 -0.875 C 10.941406 -1.132812 10.90625 -1.382812 10.78125 -1.625 C 10.65625 -1.875 10.40625 -2.0625 10.03125 -2.1875 C 9.769531 -2.257812 9.507812 -2.28125 9.25 -2.25 C 8.988281 -2.21875 8.742188 -2.144531 8.515625 -2.03125 C 8.296875 -1.914062 8.101562 -1.765625 7.9375 -1.578125 C 7.769531 -1.398438 7.648438 -1.179688 7.578125 -0.921875 L 6.84375 1.828125 L 5.578125 1.5 L 6.515625 -2.03125 C 6.578125 -2.300781 6.546875 -2.554688 6.421875 -2.796875 C 6.296875 -3.046875 6.046875 -3.234375 5.671875 -3.359375 C 5.410156 -3.429688 5.148438 -3.445312 4.890625 -3.40625 C 4.628906 -3.375 4.390625 -3.300781 4.171875 -3.1875 C 3.953125 -3.082031 3.753906 -2.9375 3.578125 -2.75 C 3.410156 -2.5625 3.289062 -2.335938 3.21875 -2.078125 L 2.484375 0.671875 L 1.234375 0.328125 Z M 2.75 -5.3125 "/></g></g></g><g fill="#0c7643" fill-opacity="1"><g transform="translate(153.459669, 198.667066)"><g><path d="M 3.71875 -7.25 C 3.8125 -7.476562 3.960938 -7.628906 4.171875 -7.703125 C 4.378906 -7.785156 4.582031 -7.789062 4.78125 -7.71875 C 4.957031 -7.644531 5.09375 -7.503906 5.1875 -7.296875 C 5.289062 -7.097656 5.296875 -6.882812 5.203125 -6.65625 C 5.117188 -6.4375 4.96875 -6.285156 4.75 -6.203125 C 4.539062 -6.128906 4.347656 -6.128906 4.171875 -6.203125 C 3.972656 -6.273438 3.828125 -6.410156 3.734375 -6.609375 C 3.640625 -6.816406 3.632812 -7.03125 3.71875 -7.25 Z M 2.046875 0.8125 L 0.84375 0.328125 L 3 -5.09375 L 4.203125 -4.609375 Z M 2.046875 0.8125 "/></g></g></g><g fill="#0c7643" fill-opacity="1"><g transform="translate(156.91552, 200.005961)"><g><path d="M 5.03125 0.765625 C 5.070312 0.972656 5.113281 1.175781 5.15625 1.375 C 5.195312 1.570312 5.242188 1.773438 5.296875 1.984375 C 4.953125 2.046875 4.609375 2.0625 4.265625 2.03125 C 3.921875 2 3.582031 1.898438 3.25 1.734375 C 2.851562 1.546875 2.519531 1.296875 2.25 0.984375 C 1.988281 0.671875 1.789062 0.328125 1.65625 -0.046875 C 1.519531 -0.421875 1.457031 -0.804688 1.46875 -1.203125 C 1.488281 -1.609375 1.59375 -2.003906 1.78125 -2.390625 C 1.96875 -2.765625 2.210938 -3.082031 2.515625 -3.34375 C 2.828125 -3.613281 3.171875 -3.804688 3.546875 -3.921875 C 3.921875 -4.046875 4.3125 -4.097656 4.71875 -4.078125 C 5.132812 -4.054688 5.539062 -3.953125 5.9375 -3.765625 C 6.269531 -3.597656 6.5625 -3.390625 6.8125 -3.140625 C 7.0625 -2.890625 7.257812 -2.609375 7.40625 -2.296875 C 7.21875 -2.203125 7.023438 -2.113281 6.828125 -2.03125 C 6.640625 -1.945312 6.453125 -1.863281 6.265625 -1.78125 C 6.066406 -2.144531 5.769531 -2.425781 5.375 -2.625 C 4.882812 -2.851562 4.414062 -2.894531 3.96875 -2.75 C 3.519531 -2.601562 3.179688 -2.296875 2.953125 -1.828125 C 2.734375 -1.367188 2.695312 -0.90625 2.84375 -0.4375 C 3 0.0195312 3.320312 0.363281 3.8125 0.59375 C 4.21875 0.789062 4.625 0.847656 5.03125 0.765625 Z M 5.03125 0.765625 "/></g></g></g><g fill="#0c7643" fill-opacity="1"><g transform="translate(162.914733, 202.908049)"><g><path d="M 3.328125 -1.375 C 3.054688 -0.945312 2.96875 -0.492188 3.0625 -0.015625 C 3.164062 0.453125 3.445312 0.832031 3.90625 1.125 C 4.351562 1.40625 4.8125 1.488281 5.28125 1.375 C 5.757812 1.257812 6.132812 0.988281 6.40625 0.5625 C 6.6875 0.125 6.769531 -0.328125 6.65625 -0.796875 C 6.550781 -1.265625 6.273438 -1.640625 5.828125 -1.921875 C 5.367188 -2.210938 4.90625 -2.300781 4.4375 -2.1875 C 3.976562 -2.082031 3.609375 -1.8125 3.328125 -1.375 Z M 2.203125 -2.0625 C 2.410156 -2.40625 2.679688 -2.6875 3.015625 -2.90625 C 3.359375 -3.132812 3.722656 -3.296875 4.109375 -3.390625 C 4.492188 -3.484375 4.894531 -3.492188 5.3125 -3.421875 C 5.726562 -3.359375 6.125 -3.210938 6.5 -2.984375 C 6.726562 -2.835938 6.921875 -2.664062 7.078125 -2.46875 C 7.234375 -2.269531 7.359375 -2.082031 7.453125 -1.90625 C 7.546875 -1.726562 7.613281 -1.570312 7.65625 -1.4375 C 7.695312 -1.300781 7.707031 -1.222656 7.6875 -1.203125 C 7.75 -1.296875 7.820312 -1.390625 7.90625 -1.484375 C 8 -1.578125 8.078125 -1.679688 8.140625 -1.796875 L 9.046875 -1.21875 L 5.9375 3.734375 L 4.96875 3.125 L 5.234375 2.703125 L 5.3125 2.578125 C 5.289062 2.609375 5.21875 2.632812 5.09375 2.65625 C 4.976562 2.675781 4.828125 2.679688 4.640625 2.671875 C 4.453125 2.660156 4.234375 2.617188 3.984375 2.546875 C 3.734375 2.484375 3.484375 2.367188 3.234375 2.203125 C 2.859375 1.972656 2.550781 1.679688 2.3125 1.328125 C 2.070312 0.984375 1.90625 0.617188 1.8125 0.234375 C 1.726562 -0.140625 1.710938 -0.523438 1.765625 -0.921875 C 1.828125 -1.328125 1.972656 -1.707031 2.203125 -2.0625 Z M 2.203125 -2.0625 "/></g></g></g><g fill="#0c7643" fill-opacity="1"><g transform="translate(247.584744, 172.716346)"><g><path d="M 3.65625 -7.015625 C 4.664062 -7.015625 5.441406 -6.734375 5.984375 -6.171875 C 6.523438 -5.609375 6.796875 -4.800781 6.796875 -3.75 C 6.796875 -2.507812 6.488281 -1.5625 5.875 -0.90625 C 5.269531 -0.25 4.40625 0.078125 3.28125 0.078125 C 2.9375 0.078125 2.53125 0.0664062 2.0625 0.046875 C 1.59375 0.0351562 1.1875 0.0195312 0.84375 0 L 0.921875 -2.078125 L 0.84375 -6.96875 Z M 3.546875 -1.0625 C 4.691406 -1.0625 5.265625 -1.84375 5.265625 -3.40625 C 5.265625 -4.257812 5.125 -4.878906 4.84375 -5.265625 C 4.5625 -5.648438 4.128906 -5.84375 3.546875 -5.84375 C 3.160156 -5.84375 2.75 -5.828125 2.3125 -5.796875 L 2.25 -2.203125 L 2.28125 -1.140625 C 2.789062 -1.085938 3.210938 -1.0625 3.546875 -1.0625 Z M 3.546875 -1.0625 "/></g></g></g><g fill="#0c7643" fill-opacity="1"><g transform="translate(256.293286, 172.716346)"><g><path d="M 5.234375 -1.21875 L 5.3125 -1.09375 L 5.21875 0 L 0.84375 0 L 0.921875 -2.078125 L 0.84375 -6.96875 L 5.265625 -6.96875 L 5.34375 -6.859375 L 5.234375 -5.765625 L 3.578125 -5.8125 L 2.3125 -5.796875 L 2.28125 -4.125 L 3.484375 -4.109375 L 4.625 -4.140625 L 4.703125 -4.03125 L 4.609375 -2.9375 L 3.375 -2.96875 L 2.265625 -2.953125 L 2.25 -2.203125 L 2.28125 -1.15625 L 3.515625 -1.140625 Z M 5.234375 -1.21875 "/></g></g></g><g fill="#0c7643" fill-opacity="1"><g transform="translate(263.422635, 172.716346)"><g><path d="M 4 0 L 2.234375 0 L 0.109375 -6.96875 L 1.609375 -6.96875 L 1.78125 -6.046875 L 3.09375 -1.359375 L 3.1875 -1.359375 L 4.703125 -5.984375 L 4.890625 -6.96875 L 6.34375 -6.96875 Z M 4 0 "/></g></g></g><g fill="#0c7643" fill-opacity="1"><g transform="translate(271.395666, 172.716346)"><g><path d="M 5.234375 -1.21875 L 5.3125 -1.09375 L 5.21875 0 L 0.84375 0 L 0.921875 -2.078125 L 0.84375 -6.96875 L 5.265625 -6.96875 L 5.34375 -6.859375 L 5.234375 -5.765625 L 3.578125 -5.8125 L 2.3125 -5.796875 L 2.28125 -4.125 L 3.484375 -4.109375 L 4.625 -4.140625 L 4.703125 -4.03125 L 4.609375 -2.9375 L 3.375 -2.96875 L 2.265625 -2.953125 L 2.25 -2.203125 L 2.28125 -1.15625 L 3.515625 -1.140625 Z M 5.234375 -1.21875 "/></g></g></g><g fill="#0c7643" fill-opacity="1"><g transform="translate(278.525015, 172.716346)"><g><path d="M 4.671875 -1.09375 L 4.5625 0 L 0.796875 0 L 0.875 -2.078125 L 0.796875 -6.96875 L 2.296875 -6.96875 L 2.203125 -2.203125 L 2.234375 -1.21875 L 4.578125 -1.21875 Z M 4.671875 -1.09375 "/></g></g></g><g fill="#0c7643" fill-opacity="1"><g transform="translate(284.832311, 172.716346)"><g><path d="M 3.609375 -7.078125 C 4.585938 -7.078125 5.34375 -6.773438 5.875 -6.171875 C 6.40625 -5.578125 6.671875 -4.734375 6.671875 -3.640625 C 6.671875 -2.441406 6.378906 -1.515625 5.796875 -0.859375 C 5.222656 -0.210938 4.410156 0.109375 3.359375 0.109375 C 2.378906 0.109375 1.625 -0.191406 1.09375 -0.796875 C 0.5625 -1.410156 0.296875 -2.28125 0.296875 -3.40625 C 0.296875 -4.582031 0.582031 -5.488281 1.15625 -6.125 C 1.738281 -6.757812 2.554688 -7.078125 3.609375 -7.078125 Z M 3.46875 -5.890625 C 2.894531 -5.890625 2.476562 -5.707031 2.21875 -5.34375 C 1.957031 -4.988281 1.828125 -4.398438 1.828125 -3.578125 C 1.828125 -2.648438 1.953125 -1.988281 2.203125 -1.59375 C 2.460938 -1.195312 2.890625 -1 3.484375 -1 C 4.066406 -1 4.484375 -1.179688 4.734375 -1.546875 C 4.992188 -1.910156 5.125 -2.503906 5.125 -3.328125 C 5.125 -4.242188 4.992188 -4.898438 4.734375 -5.296875 C 4.484375 -5.691406 4.0625 -5.890625 3.46875 -5.890625 Z M 3.46875 -5.890625 "/></g></g></g><g fill="#0c7643" fill-opacity="1"><g transform="translate(293.411053, 172.716346)"><g><path d="M 3.515625 -6.984375 C 4.242188 -6.984375 4.804688 -6.796875 5.203125 -6.421875 C 5.597656 -6.054688 5.796875 -5.53125 5.796875 -4.84375 C 5.796875 -4.320312 5.675781 -3.863281 5.4375 -3.46875 C 5.207031 -3.070312 4.878906 -2.765625 4.453125 -2.546875 C 4.023438 -2.335938 3.519531 -2.234375 2.9375 -2.234375 L 2.25 -2.234375 L 2.25 -2.203125 L 2.3125 0 L 0.84375 0 L 0.921875 -2.078125 L 0.84375 -6.96875 Z M 3.265625 -3.296875 C 3.929688 -3.484375 4.265625 -3.957031 4.265625 -4.71875 C 4.265625 -5.113281 4.164062 -5.40625 3.96875 -5.59375 C 3.769531 -5.78125 3.460938 -5.882812 3.046875 -5.90625 L 2.3125 -5.859375 L 2.28125 -3.34375 Z M 3.265625 -3.296875 "/></g></g></g><g fill="#0c7643" fill-opacity="1"><g transform="translate(301.016318, 172.716346)"><g><path d="M 5.234375 -1.21875 L 5.3125 -1.09375 L 5.21875 0 L 0.84375 0 L 0.921875 -2.078125 L 0.84375 -6.96875 L 5.265625 -6.96875 L 5.34375 -6.859375 L 5.234375 -5.765625 L 3.578125 -5.8125 L 2.3125 -5.796875 L 2.28125 -4.125 L 3.484375 -4.109375 L 4.625 -4.140625 L 4.703125 -4.03125 L 4.609375 -2.9375 L 3.375 -2.96875 L 2.265625 -2.953125 L 2.25 -2.203125 L 2.28125 -1.15625 L 3.515625 -1.140625 Z M 5.234375 -1.21875 "/></g></g></g><g fill="#0c7643" fill-opacity="1"><g transform="translate(308.145667, 172.716346)"><g><path d="M 4.5 -2.765625 C 5.0625 -1.867188 5.625 -1.0625 6.1875 -0.34375 L 6.15625 -0.1875 C 5.6875 -0.0195312 5.207031 0.078125 4.71875 0.109375 L 4.5625 -0.015625 C 4.050781 -0.910156 3.628906 -1.6875 3.296875 -2.34375 L 2.25 -2.34375 L 2.25 -2.203125 L 2.3125 0 L 0.84375 0 L 0.921875 -2.078125 L 0.84375 -6.96875 L 3.515625 -6.984375 C 4.242188 -6.984375 4.804688 -6.800781 5.203125 -6.4375 C 5.597656 -6.082031 5.796875 -5.578125 5.796875 -4.921875 C 5.796875 -4.472656 5.679688 -4.0625 5.453125 -3.6875 C 5.234375 -3.3125 4.914062 -3.003906 4.5 -2.765625 Z M 2.28125 -3.484375 L 3.34375 -3.4375 C 3.957031 -3.644531 4.265625 -4.09375 4.265625 -4.78125 C 4.265625 -5.144531 4.164062 -5.414062 3.96875 -5.59375 C 3.769531 -5.78125 3.460938 -5.882812 3.046875 -5.90625 L 2.3125 -5.859375 Z M 2.28125 -3.484375 "/></g></g></g></svg>